<svg width="152" height="152" viewBox="0 0 152 152" fill="none" xmlns="http://www.w3.org/2000/svg">
<rect width="152" height="152" rx="76" fill="url(#paint0_radial)"/>
<g filter="url(#filter0_d)">
<path d="M94.6692 65.1635C93.8707 64.327 92.7681 63.8327 91.5133 63.8327H85.2015V63.7566C85.2015 62.8061 84.8213 61.8935 84.1749 61.2852C83.5285 60.6388 82.654 60.2585 81.7034 60.2585H70.2966C69.308 60.2585 68.4335 60.6388 67.7871 61.2852C67.1407 61.9315 66.7605 62.8061 66.7605 63.7566V63.8327H60.4867C59.2319 63.8327 58.1293 64.327 57.3308 65.1635C56.5323 65.962 56 67.1027 56 68.3194V87.2547C56 88.5095 56.4943 89.6122 57.3308 90.4106C58.1293 91.2091 59.27 91.7414 60.4867 91.7414H91.5133C92.7681 91.7414 93.8707 91.2471 94.6692 90.4106C95.4677 89.6122 96 88.4715 96 87.2547V68.3194C96 67.0646 95.5057 65.962 94.6692 65.1635ZM94.0228 87.2547H93.9848C93.9848 87.9391 93.7186 88.5475 93.2624 89.0038C92.8061 89.4601 92.1977 89.7262 91.5133 89.7262H60.4867C59.8023 89.7262 59.1939 89.4601 58.7376 89.0038C58.2814 88.5475 58.0152 87.9391 58.0152 87.2547V68.3194C58.0152 67.635 58.2814 67.0266 58.7376 66.5703C59.1939 66.1141 59.8023 65.8479 60.4867 65.8479H67.8251C68.3954 65.8479 68.8517 65.3916 68.8517 64.8213V63.7186C68.8517 63.3004 69.0038 62.9201 69.27 62.654C69.5361 62.3878 69.9164 62.2357 70.3346 62.2357H81.7034C82.1217 62.2357 82.5019 62.3878 82.7681 62.654C83.0342 62.9201 83.1863 63.3004 83.1863 63.7186V64.8213C83.1863 65.3916 83.6426 65.8479 84.2129 65.8479H91.5513C92.2357 65.8479 92.8441 66.1141 93.3004 66.5703C93.7567 67.0266 94.0228 67.635 94.0228 68.3194V87.2547Z" fill="url(#paint1_linear)"/>
<path d="M76.0001 68.4336C73.4145 68.4336 71.0571 69.4982 69.3841 71.1712C67.6731 72.8823 66.6465 75.2017 66.6465 77.7872C66.6465 80.3728 67.7111 82.7302 69.3841 84.4032C71.0952 86.1142 73.4145 87.1408 76.0001 87.1408C78.5856 87.1408 80.9431 86.0762 82.6161 84.4032C84.3271 82.6922 85.3537 80.3728 85.3537 77.7872C85.3537 75.2017 84.2891 72.8442 82.6161 71.1712C80.9431 69.4982 78.5856 68.4336 76.0001 68.4336ZM81.1712 82.9963C79.8404 84.2891 78.0153 85.1256 76.0001 85.1256C73.9849 85.1256 72.1598 84.2891 70.829 82.9963C69.4982 81.6655 68.6997 79.8404 68.6997 77.8252C68.6997 75.81 69.5362 73.9849 70.829 72.6541C72.1598 71.3233 73.9849 70.5248 76.0001 70.5248C78.0153 70.5248 79.8404 71.3614 81.1712 72.6541C82.502 73.9849 83.3005 75.81 83.3005 77.8252C83.3385 79.8404 82.502 81.6655 81.1712 82.9963Z" fill="url(#paint2_linear)"/>
<path d="M89.536 72.1217C90.5649 72.1217 91.3991 71.2876 91.3991 70.2586C91.3991 69.2297 90.5649 68.3955 89.536 68.3955C88.507 68.3955 87.6729 69.2297 87.6729 70.2586C87.6729 71.2876 88.507 72.1217 89.536 72.1217Z" fill="url(#paint3_linear)"/>
</g>
<defs>
<filter id="filter0_d" x="52" y="60.2585" width="48" height="39.4829" filterUnits="userSpaceOnUse" color-interpolation-filters="sRGB">
<feFlood flood-opacity="0" result="BackgroundImageFix"/>
<feColorMatrix in="SourceAlpha" type="matrix" values="0 0 0 0 0 0 0 0 0 0 0 0 0 0 0 0 0 0 127 0"/>
<feOffset dy="4"/>
<feGaussianBlur stdDeviation="2"/>
<feColorMatrix type="matrix" values="0 0 0 0 0 0 0 0 0 0 0 0 0 0 0 0 0 0 0.25 0"/>
<feBlend mode="normal" in2="BackgroundImageFix" result="effect1_dropShadow"/>
<feBlend mode="normal" in="SourceGraphic" in2="effect1_dropShadow" result="shape"/>
</filter>
<radialGradient id="paint0_radial" cx="0" cy="0" r="1" gradientUnits="userSpaceOnUse" gradientTransform="translate(76 76) rotate(90) scale(76)">
<stop stop-color="#212121"/>
<stop offset="1" stop-color="#2F2F2F"/>
</radialGradient>
<linearGradient id="paint1_linear" x1="89.536" y1="68.3955" x2="89.536" y2="72.1217" gradientUnits="userSpaceOnUse">
<stop stop-color="#4CC9F0"/>
<stop offset="1" stop-color="#4361EE"/>
</linearGradient>
<linearGradient id="paint2_linear" x1="89.536" y1="68.3955" x2="89.536" y2="72.1217" gradientUnits="userSpaceOnUse">
<stop stop-color="#4CC9F0"/>
<stop offset="1" stop-color="#4361EE"/>
</linearGradient>
<linearGradient id="paint3_linear" x1="89.536" y1="68.3955" x2="89.536" y2="72.1217" gradientUnits="userSpaceOnUse">
<stop stop-color="#4CC9F0"/>
<stop offset="1" stop-color="#4361EE"/>
</linearGradient>
</defs>
</svg>
