<svg width="396" height="396" viewBox="0 0 396 396" fill="none" xmlns="http://www.w3.org/2000/svg">
<g filter="url(#filter0_ddi)">
<rect x="17" y="17" width="360" height="360" rx="10" fill="url(#paint0_linear)"/>
</g>
<g filter="url(#filter1_ddi)">
<path d="M197 180V230M172 205L222 205" stroke="url(#paint1_linear)" stroke-width="8" stroke-linecap="round"/>
</g>
<path d="M68.8389 255.402H64.6689L63.7324 258H62.3789L66.1797 248.047H67.3281L71.1357 258H69.7891L68.8389 255.402ZM65.0654 254.322H68.4492L66.7539 249.667L65.0654 254.322ZM71.9697 254.24C71.9697 253.105 72.2386 252.194 72.7764 251.506C73.3141 250.813 74.0182 250.467 74.8887 250.467C75.7546 250.467 76.4404 250.763 76.9463 251.355V247.5H78.2109V258H77.0488L76.9873 257.207C76.4814 257.827 75.7773 258.137 74.875 258.137C74.0182 258.137 73.3187 257.786 72.7764 257.084C72.2386 256.382 71.9697 255.466 71.9697 254.336V254.24ZM73.2344 254.384C73.2344 255.222 73.4076 255.879 73.7539 256.353C74.1003 256.826 74.5788 257.063 75.1895 257.063C75.9915 257.063 76.5771 256.703 76.9463 255.983V252.586C76.568 251.889 75.987 251.54 75.2031 251.54C74.5833 251.54 74.1003 251.779 73.7539 252.258C73.4076 252.736 73.2344 253.445 73.2344 254.384ZM79.8721 254.24C79.8721 253.105 80.141 252.194 80.6787 251.506C81.2165 250.813 81.9206 250.467 82.791 250.467C83.6569 250.467 84.3428 250.763 84.8486 251.355V247.5H86.1133V258H84.9512L84.8896 257.207C84.3838 257.827 83.6797 258.137 82.7773 258.137C81.9206 258.137 81.221 257.786 80.6787 257.084C80.141 256.382 79.8721 255.466 79.8721 254.336V254.24ZM81.1367 254.384C81.1367 255.222 81.3099 255.879 81.6562 256.353C82.0026 256.826 82.4811 257.063 83.0918 257.063C83.8939 257.063 84.4795 256.703 84.8486 255.983V252.586C84.4704 251.889 83.8893 251.54 83.1055 251.54C82.4857 251.54 82.0026 251.779 81.6562 252.258C81.3099 252.736 81.1367 253.445 81.1367 254.384ZM93.2705 248.812V250.604H94.6514V251.581H93.2705V256.168C93.2705 256.464 93.332 256.688 93.4551 256.838C93.5781 256.984 93.7878 257.057 94.084 257.057C94.2298 257.057 94.4303 257.029 94.6855 256.975V258C94.3529 258.091 94.0293 258.137 93.7148 258.137C93.1497 258.137 92.7236 257.966 92.4365 257.624C92.1494 257.282 92.0059 256.797 92.0059 256.168V251.581H90.6592V250.604H92.0059V248.812H93.2705ZM97.3994 251.499C97.96 250.811 98.6891 250.467 99.5869 250.467C101.15 250.467 101.938 251.349 101.952 253.112V258H100.688V253.105C100.683 252.572 100.56 252.178 100.318 251.923C100.081 251.668 99.71 251.54 99.2041 251.54C98.7939 251.54 98.4339 251.649 98.124 251.868C97.8141 252.087 97.5726 252.374 97.3994 252.729V258H96.1348V247.5H97.3994V251.499ZM106.915 258.137C105.912 258.137 105.097 257.809 104.468 257.152C103.839 256.492 103.524 255.61 103.524 254.507V254.274C103.524 253.541 103.663 252.887 103.941 252.312C104.224 251.734 104.616 251.283 105.117 250.959C105.623 250.631 106.17 250.467 106.758 250.467C107.719 250.467 108.467 250.784 109 251.417C109.533 252.05 109.8 252.957 109.8 254.138V254.664H104.789C104.807 255.393 105.019 255.983 105.425 256.435C105.835 256.881 106.354 257.104 106.983 257.104C107.43 257.104 107.808 257.013 108.118 256.831C108.428 256.649 108.699 256.407 108.932 256.106L109.704 256.708C109.084 257.66 108.155 258.137 106.915 258.137ZM106.758 251.506C106.247 251.506 105.819 251.693 105.473 252.066C105.126 252.436 104.912 252.955 104.83 253.625H108.535V253.529C108.499 252.887 108.326 252.39 108.016 252.039C107.706 251.684 107.286 251.506 106.758 251.506ZM119.309 258C119.236 257.854 119.176 257.594 119.131 257.221C118.543 257.831 117.841 258.137 117.025 258.137C116.296 258.137 115.697 257.932 115.228 257.521C114.763 257.107 114.53 256.583 114.53 255.949C114.53 255.179 114.822 254.582 115.405 254.158C115.993 253.73 116.818 253.516 117.88 253.516H119.11V252.935C119.11 252.493 118.978 252.142 118.714 251.882C118.45 251.618 118.06 251.485 117.545 251.485C117.094 251.485 116.715 251.599 116.41 251.827C116.105 252.055 115.952 252.331 115.952 252.654H114.681C114.681 252.285 114.811 251.93 115.07 251.588C115.335 251.242 115.69 250.968 116.137 250.768C116.588 250.567 117.082 250.467 117.62 250.467C118.472 250.467 119.14 250.681 119.623 251.109C120.106 251.533 120.357 252.119 120.375 252.866V256.271C120.375 256.95 120.462 257.49 120.635 257.891V258H119.309ZM117.21 257.036C117.606 257.036 117.982 256.934 118.338 256.729C118.693 256.523 118.951 256.257 119.11 255.929V254.411H118.119C116.57 254.411 115.795 254.865 115.795 255.771C115.795 256.168 115.927 256.478 116.191 256.701C116.456 256.924 116.795 257.036 117.21 257.036ZM123.731 258H122.467V247.5H123.731V258ZM132.023 254.384C132.023 255.514 131.764 256.423 131.244 257.111C130.725 257.795 130.027 258.137 129.152 258.137C128.218 258.137 127.496 257.806 126.985 257.146L126.924 258H125.762V247.5H127.026V251.417C127.537 250.784 128.241 250.467 129.139 250.467C130.036 250.467 130.741 250.806 131.251 251.485C131.766 252.164 132.023 253.094 132.023 254.274V254.384ZM130.759 254.24C130.759 253.379 130.592 252.714 130.26 252.244C129.927 251.775 129.449 251.54 128.824 251.54C127.99 251.54 127.391 251.927 127.026 252.702V255.901C127.414 256.676 128.018 257.063 128.838 257.063C129.444 257.063 129.916 256.829 130.253 256.359C130.59 255.89 130.759 255.184 130.759 254.24ZM138.189 257.269C137.697 257.847 136.975 258.137 136.022 258.137C135.234 258.137 134.632 257.909 134.218 257.453C133.808 256.993 133.6 256.314 133.596 255.416V250.604H134.86V255.382C134.86 256.503 135.316 257.063 136.228 257.063C137.194 257.063 137.836 256.703 138.155 255.983V250.604H139.42V258H138.217L138.189 257.269ZM142.537 250.604L142.571 251.424C143.114 250.786 143.845 250.467 144.766 250.467C145.8 250.467 146.504 250.863 146.878 251.656C147.124 251.301 147.443 251.014 147.835 250.795C148.231 250.576 148.699 250.467 149.236 250.467C150.859 250.467 151.684 251.326 151.711 253.044V258H150.446V253.119C150.446 252.59 150.326 252.196 150.084 251.937C149.842 251.672 149.437 251.54 148.867 251.54C148.398 251.54 148.008 251.681 147.698 251.964C147.388 252.242 147.208 252.618 147.158 253.092V258H145.887V253.153C145.887 252.078 145.36 251.54 144.308 251.54C143.478 251.54 142.911 251.893 142.605 252.6V258H141.341V250.604H142.537ZM160.064 257.104C160.516 257.104 160.91 256.968 161.247 256.694C161.584 256.421 161.771 256.079 161.808 255.669H163.004C162.981 256.093 162.835 256.496 162.566 256.879C162.298 257.262 161.938 257.567 161.486 257.795C161.04 258.023 160.566 258.137 160.064 258.137C159.057 258.137 158.255 257.802 157.658 257.132C157.066 256.457 156.77 255.537 156.77 254.37V254.158C156.77 253.438 156.902 252.798 157.166 252.237C157.43 251.677 157.809 251.242 158.301 250.932C158.798 250.622 159.383 250.467 160.058 250.467C160.887 250.467 161.575 250.715 162.122 251.212C162.674 251.709 162.967 252.354 163.004 253.146H161.808C161.771 252.668 161.589 252.276 161.261 251.971C160.937 251.661 160.536 251.506 160.058 251.506C159.415 251.506 158.916 251.738 158.561 252.203C158.21 252.663 158.034 253.331 158.034 254.206V254.445C158.034 255.298 158.21 255.954 158.561 256.414C158.911 256.874 159.413 257.104 160.064 257.104ZM164.091 254.233C164.091 253.509 164.232 252.857 164.515 252.278C164.802 251.7 165.198 251.253 165.704 250.938C166.215 250.624 166.796 250.467 167.447 250.467C168.454 250.467 169.268 250.815 169.888 251.513C170.512 252.21 170.824 253.137 170.824 254.295V254.384C170.824 255.104 170.685 255.751 170.407 256.325C170.134 256.895 169.74 257.339 169.225 257.658C168.714 257.977 168.126 258.137 167.461 258.137C166.458 258.137 165.645 257.788 165.021 257.091C164.401 256.394 164.091 255.471 164.091 254.322V254.233ZM165.362 254.384C165.362 255.204 165.551 255.863 165.93 256.359C166.312 256.856 166.823 257.104 167.461 257.104C168.104 257.104 168.614 256.854 168.992 256.353C169.37 255.847 169.56 255.14 169.56 254.233C169.56 253.422 169.366 252.766 168.979 252.265C168.596 251.759 168.085 251.506 167.447 251.506C166.823 251.506 166.319 251.754 165.937 252.251C165.554 252.748 165.362 253.459 165.362 254.384ZM174.741 256.284L176.573 250.604H177.865L175.213 258H174.249L171.569 250.604H172.861L174.741 256.284ZM182.056 258.137C181.053 258.137 180.237 257.809 179.608 257.152C178.979 256.492 178.665 255.61 178.665 254.507V254.274C178.665 253.541 178.804 252.887 179.082 252.312C179.365 251.734 179.757 251.283 180.258 250.959C180.764 250.631 181.311 250.467 181.898 250.467C182.86 250.467 183.607 250.784 184.141 251.417C184.674 252.05 184.94 252.957 184.94 254.138V254.664H179.93C179.948 255.393 180.16 255.983 180.565 256.435C180.976 256.881 181.495 257.104 182.124 257.104C182.571 257.104 182.949 257.013 183.259 256.831C183.569 256.649 183.84 256.407 184.072 256.106L184.845 256.708C184.225 257.66 183.295 258.137 182.056 258.137ZM181.898 251.506C181.388 251.506 180.96 251.693 180.613 252.066C180.267 252.436 180.053 252.955 179.971 253.625H183.676V253.529C183.639 252.887 183.466 252.39 183.156 252.039C182.846 251.684 182.427 251.506 181.898 251.506ZM189.985 251.738C189.794 251.706 189.587 251.69 189.363 251.69C188.534 251.69 187.971 252.044 187.675 252.75V258H186.41V250.604H187.641L187.661 251.458C188.076 250.797 188.664 250.467 189.425 250.467C189.671 250.467 189.858 250.499 189.985 250.562V251.738ZM194.292 254.233C194.292 253.509 194.433 252.857 194.716 252.278C195.003 251.7 195.399 251.253 195.905 250.938C196.416 250.624 196.997 250.467 197.648 250.467C198.656 250.467 199.469 250.815 200.089 251.513C200.713 252.21 201.025 253.137 201.025 254.295V254.384C201.025 255.104 200.886 255.751 200.608 256.325C200.335 256.895 199.941 257.339 199.426 257.658C198.915 257.977 198.327 258.137 197.662 258.137C196.66 258.137 195.846 257.788 195.222 257.091C194.602 256.394 194.292 255.471 194.292 254.322V254.233ZM195.563 254.384C195.563 255.204 195.753 255.863 196.131 256.359C196.514 256.856 197.024 257.104 197.662 257.104C198.305 257.104 198.815 256.854 199.193 256.353C199.572 255.847 199.761 255.14 199.761 254.233C199.761 253.422 199.567 252.766 199.18 252.265C198.797 251.759 198.286 251.506 197.648 251.506C197.024 251.506 196.521 251.754 196.138 252.251C195.755 252.748 195.563 253.459 195.563 254.384ZM203.233 258V251.581H202.064V250.604H203.233V249.845C203.233 249.052 203.445 248.439 203.869 248.006C204.293 247.573 204.892 247.356 205.667 247.356C205.959 247.356 206.248 247.395 206.535 247.473L206.467 248.498C206.253 248.457 206.025 248.437 205.783 248.437C205.373 248.437 205.056 248.557 204.833 248.799C204.61 249.036 204.498 249.378 204.498 249.824V250.604H206.077V251.581H204.498V258H203.233ZM212.667 248.812V250.604H214.048V251.581H212.667V256.168C212.667 256.464 212.729 256.688 212.852 256.838C212.975 256.984 213.184 257.057 213.48 257.057C213.626 257.057 213.827 257.029 214.082 256.975V258C213.749 258.091 213.426 258.137 213.111 258.137C212.546 258.137 212.12 257.966 211.833 257.624C211.546 257.282 211.402 256.797 211.402 256.168V251.581H210.056V250.604H211.402V248.812H212.667ZM216.796 251.499C217.356 250.811 218.086 250.467 218.983 250.467C220.547 250.467 221.335 251.349 221.349 253.112V258H220.084V253.105C220.079 252.572 219.956 252.178 219.715 251.923C219.478 251.668 219.106 251.54 218.601 251.54C218.19 251.54 217.83 251.649 217.521 251.868C217.211 252.087 216.969 252.374 216.796 252.729V258H215.531V247.5H216.796V251.499ZM226.312 258.137C225.309 258.137 224.493 257.809 223.864 257.152C223.235 256.492 222.921 255.61 222.921 254.507V254.274C222.921 253.541 223.06 252.887 223.338 252.312C223.62 251.734 224.012 251.283 224.514 250.959C225.02 250.631 225.566 250.467 226.154 250.467C227.116 250.467 227.863 250.784 228.396 251.417C228.93 252.05 229.196 252.957 229.196 254.138V254.664H224.186C224.204 255.393 224.416 255.983 224.821 256.435C225.231 256.881 225.751 257.104 226.38 257.104C226.826 257.104 227.205 257.013 227.515 256.831C227.825 256.649 228.096 256.407 228.328 256.106L229.101 256.708C228.481 257.66 227.551 258.137 226.312 258.137ZM226.154 251.506C225.644 251.506 225.215 251.693 224.869 252.066C224.523 252.436 224.309 252.955 224.227 253.625H227.932V253.529C227.895 252.887 227.722 252.39 227.412 252.039C227.102 251.684 226.683 251.506 226.154 251.506ZM238.445 256.038C238.445 255.696 238.315 255.432 238.056 255.245C237.8 255.054 237.352 254.89 236.709 254.753C236.071 254.616 235.563 254.452 235.185 254.261C234.811 254.069 234.533 253.841 234.351 253.577C234.173 253.313 234.084 252.998 234.084 252.634C234.084 252.028 234.339 251.515 234.85 251.096C235.365 250.676 236.021 250.467 236.818 250.467C237.657 250.467 238.336 250.683 238.855 251.116C239.38 251.549 239.642 252.103 239.642 252.777H238.37C238.37 252.431 238.222 252.132 237.926 251.882C237.634 251.631 237.265 251.506 236.818 251.506C236.358 251.506 235.998 251.606 235.738 251.807C235.479 252.007 235.349 252.269 235.349 252.593C235.349 252.898 235.469 253.128 235.711 253.283C235.952 253.438 236.388 253.586 237.017 253.728C237.65 253.869 238.163 254.037 238.555 254.233C238.947 254.429 239.236 254.666 239.423 254.944C239.614 255.218 239.71 255.553 239.71 255.949C239.71 256.61 239.446 257.141 238.917 257.542C238.388 257.938 237.702 258.137 236.859 258.137C236.267 258.137 235.743 258.032 235.287 257.822C234.831 257.613 234.474 257.321 234.214 256.947C233.959 256.569 233.831 256.161 233.831 255.724H235.096C235.118 256.147 235.287 256.485 235.602 256.735C235.921 256.981 236.34 257.104 236.859 257.104C237.338 257.104 237.721 257.009 238.008 256.817C238.299 256.621 238.445 256.362 238.445 256.038ZM241.022 254.233C241.022 253.509 241.164 252.857 241.446 252.278C241.733 251.7 242.13 251.253 242.636 250.938C243.146 250.624 243.727 250.467 244.379 250.467C245.386 250.467 246.2 250.815 246.819 251.513C247.444 252.21 247.756 253.137 247.756 254.295V254.384C247.756 255.104 247.617 255.751 247.339 256.325C247.065 256.895 246.671 257.339 246.156 257.658C245.646 257.977 245.058 258.137 244.393 258.137C243.39 258.137 242.576 257.788 241.952 257.091C241.332 256.394 241.022 255.471 241.022 254.322V254.233ZM242.294 254.384C242.294 255.204 242.483 255.863 242.861 256.359C243.244 256.856 243.755 257.104 244.393 257.104C245.035 257.104 245.546 256.854 245.924 256.353C246.302 255.847 246.491 255.14 246.491 254.233C246.491 253.422 246.298 252.766 245.91 252.265C245.527 251.759 245.017 251.506 244.379 251.506C243.755 251.506 243.251 251.754 242.868 252.251C242.485 252.748 242.294 253.459 242.294 254.384ZM250.538 250.604L250.579 251.533C251.144 250.822 251.882 250.467 252.794 250.467C254.357 250.467 255.146 251.349 255.159 253.112V258H253.895V253.105C253.89 252.572 253.767 252.178 253.525 251.923C253.288 251.668 252.917 251.54 252.411 251.54C252.001 251.54 251.641 251.649 251.331 251.868C251.021 252.087 250.78 252.374 250.606 252.729V258H249.342V250.604H250.538ZM256.766 254.24C256.766 253.087 257.032 252.171 257.565 251.492C258.099 250.809 258.805 250.467 259.685 250.467C260.587 250.467 261.291 250.786 261.797 251.424L261.858 250.604H263.014V257.822C263.014 258.779 262.729 259.534 262.159 260.085C261.594 260.636 260.833 260.912 259.876 260.912C259.343 260.912 258.821 260.798 258.311 260.57C257.8 260.342 257.41 260.03 257.142 259.634L257.798 258.875C258.34 259.545 259.003 259.88 259.787 259.88C260.402 259.88 260.881 259.707 261.223 259.36C261.569 259.014 261.742 258.526 261.742 257.897V257.262C261.236 257.845 260.546 258.137 259.671 258.137C258.805 258.137 258.103 257.788 257.565 257.091C257.032 256.394 256.766 255.443 256.766 254.24ZM258.037 254.384C258.037 255.218 258.208 255.874 258.55 256.353C258.892 256.826 259.37 257.063 259.985 257.063C260.783 257.063 261.368 256.701 261.742 255.977V252.6C261.355 251.893 260.774 251.54 259.999 251.54C259.384 251.54 258.903 251.779 258.557 252.258C258.21 252.736 258.037 253.445 258.037 254.384ZM270.82 256.147L272.543 250.604H273.896L270.923 259.142C270.463 260.372 269.731 260.987 268.729 260.987L268.489 260.967L268.018 260.878V259.853L268.359 259.88C268.788 259.88 269.12 259.793 269.357 259.62C269.599 259.447 269.797 259.13 269.952 258.67L270.232 257.918L267.594 250.604H268.975L270.82 256.147ZM274.587 254.233C274.587 253.509 274.728 252.857 275.011 252.278C275.298 251.7 275.694 251.253 276.2 250.938C276.711 250.624 277.292 250.467 277.943 250.467C278.951 250.467 279.764 250.815 280.384 251.513C281.008 252.21 281.32 253.137 281.32 254.295V254.384C281.32 255.104 281.181 255.751 280.903 256.325C280.63 256.895 280.236 257.339 279.721 257.658C279.21 257.977 278.622 258.137 277.957 258.137C276.954 258.137 276.141 257.788 275.517 257.091C274.897 256.394 274.587 255.471 274.587 254.322V254.233ZM275.858 254.384C275.858 255.204 276.048 255.863 276.426 256.359C276.809 256.856 277.319 257.104 277.957 257.104C278.6 257.104 279.11 256.854 279.488 256.353C279.867 255.847 280.056 255.14 280.056 254.233C280.056 253.422 279.862 252.766 279.475 252.265C279.092 251.759 278.581 251.506 277.943 251.506C277.319 251.506 276.815 251.754 276.433 252.251C276.05 252.748 275.858 253.459 275.858 254.384ZM287.473 257.269C286.98 257.847 286.258 258.137 285.306 258.137C284.517 258.137 283.916 257.909 283.501 257.453C283.091 256.993 282.883 256.314 282.879 255.416V250.604H284.144V255.382C284.144 256.503 284.599 257.063 285.511 257.063C286.477 257.063 287.119 256.703 287.438 255.983V250.604H288.703V258H287.5L287.473 257.269ZM297.07 257.104C297.521 257.104 297.916 256.968 298.253 256.694C298.59 256.421 298.777 256.079 298.813 255.669H300.01C299.987 256.093 299.841 256.496 299.572 256.879C299.303 257.262 298.943 257.567 298.492 257.795C298.046 258.023 297.572 258.137 297.07 258.137C296.063 258.137 295.261 257.802 294.664 257.132C294.072 256.457 293.775 255.537 293.775 254.37V254.158C293.775 253.438 293.908 252.798 294.172 252.237C294.436 251.677 294.814 251.242 295.307 250.932C295.803 250.622 296.389 250.467 297.063 250.467C297.893 250.467 298.581 250.715 299.128 251.212C299.679 251.709 299.973 252.354 300.01 253.146H298.813C298.777 252.668 298.595 252.276 298.267 251.971C297.943 251.661 297.542 251.506 297.063 251.506C296.421 251.506 295.922 251.738 295.566 252.203C295.215 252.663 295.04 253.331 295.04 254.206V254.445C295.04 255.298 295.215 255.954 295.566 256.414C295.917 256.874 296.419 257.104 297.07 257.104ZM302.696 251.499C303.257 250.811 303.986 250.467 304.884 250.467C306.447 250.467 307.235 251.349 307.249 253.112V258H305.984V253.105C305.98 252.572 305.857 252.178 305.615 251.923C305.378 251.668 305.007 251.54 304.501 251.54C304.091 251.54 303.731 251.649 303.421 251.868C303.111 252.087 302.869 252.374 302.696 252.729V258H301.432V247.5H302.696V251.499ZM308.808 254.233C308.808 253.509 308.949 252.857 309.231 252.278C309.519 251.7 309.915 251.253 310.421 250.938C310.931 250.624 311.512 250.467 312.164 250.467C313.171 250.467 313.985 250.815 314.604 251.513C315.229 252.21 315.541 253.137 315.541 254.295V254.384C315.541 255.104 315.402 255.751 315.124 256.325C314.851 256.895 314.456 257.339 313.941 257.658C313.431 257.977 312.843 258.137 312.178 258.137C311.175 258.137 310.362 257.788 309.737 257.091C309.118 256.394 308.808 255.471 308.808 254.322V254.233ZM310.079 254.384C310.079 255.204 310.268 255.863 310.646 256.359C311.029 256.856 311.54 257.104 312.178 257.104C312.82 257.104 313.331 256.854 313.709 256.353C314.087 255.847 314.276 255.14 314.276 254.233C314.276 253.422 314.083 252.766 313.695 252.265C313.312 251.759 312.802 251.506 312.164 251.506C311.54 251.506 311.036 251.754 310.653 252.251C310.271 252.748 310.079 253.459 310.079 254.384ZM321.434 256.038C321.434 255.696 321.304 255.432 321.044 255.245C320.789 255.054 320.34 254.89 319.697 254.753C319.059 254.616 318.551 254.452 318.173 254.261C317.799 254.069 317.521 253.841 317.339 253.577C317.161 253.313 317.072 252.998 317.072 252.634C317.072 252.028 317.327 251.515 317.838 251.096C318.353 250.676 319.009 250.467 319.807 250.467C320.645 250.467 321.324 250.683 321.844 251.116C322.368 251.549 322.63 252.103 322.63 252.777H321.358C321.358 252.431 321.21 252.132 320.914 251.882C320.622 251.631 320.253 251.506 319.807 251.506C319.346 251.506 318.986 251.606 318.727 251.807C318.467 252.007 318.337 252.269 318.337 252.593C318.337 252.898 318.458 253.128 318.699 253.283C318.941 253.438 319.376 253.586 320.005 253.728C320.638 253.869 321.151 254.037 321.543 254.233C321.935 254.429 322.224 254.666 322.411 254.944C322.603 255.218 322.698 255.553 322.698 255.949C322.698 256.61 322.434 257.141 321.905 257.542C321.377 257.938 320.691 258.137 319.848 258.137C319.255 258.137 318.731 258.032 318.275 257.822C317.82 257.613 317.462 257.321 317.202 256.947C316.947 256.569 316.819 256.161 316.819 255.724H318.084C318.107 256.147 318.275 256.485 318.59 256.735C318.909 256.981 319.328 257.104 319.848 257.104C320.326 257.104 320.709 257.009 320.996 256.817C321.288 256.621 321.434 256.362 321.434 256.038ZM327.415 258.137C326.412 258.137 325.597 257.809 324.968 257.152C324.339 256.492 324.024 255.61 324.024 254.507V254.274C324.024 253.541 324.163 252.887 324.441 252.312C324.724 251.734 325.116 251.283 325.617 250.959C326.123 250.631 326.67 250.467 327.258 250.467C328.219 250.467 328.967 250.784 329.5 251.417C330.033 252.05 330.3 252.957 330.3 254.138V254.664H325.289C325.307 255.393 325.519 255.983 325.925 256.435C326.335 256.881 326.854 257.104 327.483 257.104C327.93 257.104 328.308 257.013 328.618 256.831C328.928 256.649 329.199 256.407 329.432 256.106L330.204 256.708C329.584 257.66 328.655 258.137 327.415 258.137ZM327.258 251.506C326.747 251.506 326.319 251.693 325.973 252.066C325.626 252.436 325.412 252.955 325.33 253.625H329.035V253.529C328.999 252.887 328.826 252.39 328.516 252.039C328.206 251.684 327.786 251.506 327.258 251.506Z" fill="white"/>
<defs>
<filter id="filter0_ddi" x="0" y="0" width="396" height="396" filterUnits="userSpaceOnUse" color-interpolation-filters="sRGB">
<feFlood flood-opacity="0" result="BackgroundImageFix"/>
<feColorMatrix in="SourceAlpha" type="matrix" values="0 0 0 0 0 0 0 0 0 0 0 0 0 0 0 0 0 0 127 0"/>
<feOffset dx="4" dy="4"/>
<feGaussianBlur stdDeviation="7.5"/>
<feColorMatrix type="matrix" values="0 0 0 0 0 0 0 0 0 0 0 0 0 0 0 0 0 0 1 0"/>
<feBlend mode="normal" in2="BackgroundImageFix" result="effect1_dropShadow"/>
<feColorMatrix in="SourceAlpha" type="matrix" values="0 0 0 0 0 0 0 0 0 0 0 0 0 0 0 0 0 0 127 0"/>
<feOffset dx="-2" dy="-2"/>
<feGaussianBlur stdDeviation="7.5"/>
<feColorMatrix type="matrix" values="0 0 0 0 1 0 0 0 0 1 0 0 0 0 1 0 0 0 0.33 0"/>
<feBlend mode="normal" in2="effect1_dropShadow" result="effect2_dropShadow"/>
<feBlend mode="normal" in="SourceGraphic" in2="effect2_dropShadow" result="shape"/>
<feColorMatrix in="SourceAlpha" type="matrix" values="0 0 0 0 0 0 0 0 0 0 0 0 0 0 0 0 0 0 127 0" result="hardAlpha"/>
<feOffset dy="1"/>
<feGaussianBlur stdDeviation="10"/>
<feComposite in2="hardAlpha" operator="arithmetic" k2="-1" k3="1"/>
<feColorMatrix type="matrix" values="0 0 0 0 1 0 0 0 0 1 0 0 0 0 1 0 0 0 0.5 0"/>
<feBlend mode="normal" in2="shape" result="effect3_innerShadow"/>
</filter>
<filter id="filter1_ddi" x="156" y="164" width="84" height="84" filterUnits="userSpaceOnUse" color-interpolation-filters="sRGB">
<feFlood flood-opacity="0" result="BackgroundImageFix"/>
<feColorMatrix in="SourceAlpha" type="matrix" values="0 0 0 0 0 0 0 0 0 0 0 0 0 0 0 0 0 0 127 0"/>
<feOffset dx="4" dy="4"/>
<feGaussianBlur stdDeviation="5"/>
<feColorMatrix type="matrix" values="0 0 0 0 0 0 0 0 0 0 0 0 0 0 0 0 0 0 0.75 0"/>
<feBlend mode="normal" in2="BackgroundImageFix" result="effect1_dropShadow"/>
<feColorMatrix in="SourceAlpha" type="matrix" values="0 0 0 0 0 0 0 0 0 0 0 0 0 0 0 0 0 0 127 0"/>
<feOffset dx="-2" dy="-2"/>
<feGaussianBlur stdDeviation="5"/>
<feColorMatrix type="matrix" values="0 0 0 0 1 0 0 0 0 1 0 0 0 0 1 0 0 0 0.25 0"/>
<feBlend mode="normal" in2="effect1_dropShadow" result="effect2_dropShadow"/>
<feBlend mode="normal" in="SourceGraphic" in2="effect2_dropShadow" result="shape"/>
<feColorMatrix in="SourceAlpha" type="matrix" values="0 0 0 0 0 0 0 0 0 0 0 0 0 0 0 0 0 0 127 0" result="hardAlpha"/>
<feOffset dy="1"/>
<feGaussianBlur stdDeviation="2"/>
<feComposite in2="hardAlpha" operator="arithmetic" k2="-1" k3="1"/>
<feColorMatrix type="matrix" values="0 0 0 0 1 0 0 0 0 1 0 0 0 0 1 0 0 0 0.25 0"/>
<feBlend mode="normal" in2="shape" result="effect3_innerShadow"/>
</filter>
<linearGradient id="paint0_linear" x1="197" y1="17" x2="197" y2="377" gradientUnits="userSpaceOnUse">
<stop stop-color="#2F2F2F"/>
<stop offset="1" stop-color="#1E1E1E"/>
</linearGradient>
<linearGradient id="paint1_linear" x1="197" y1="180" x2="197" y2="230" gradientUnits="userSpaceOnUse">
<stop stop-color="#4361EE"/>
<stop offset="1" stop-color="#7209B7"/>
</linearGradient>
</defs>
</svg>
