<svg width="48" height="40" viewBox="0 0 48 40" fill="none" xmlns="http://www.w3.org/2000/svg">
<g filter="url(#filter0_d)">
<path d="M42.6692 5.16349C41.8707 4.32699 40.7681 3.83269 39.5133 3.83269H33.2015V3.75664C33.2015 2.80607 32.8213 1.89353 32.1749 1.28516C31.5285 0.638773 30.654 0.258545 29.7034 0.258545H18.2966C17.308 0.258545 16.4335 0.638773 15.7871 1.28516C15.1407 1.93155 14.7605 2.80607 14.7605 3.75664V3.83269H8.48669C7.23194 3.83269 6.12928 4.32699 5.3308 5.16349C4.53232 5.96197 4 7.10265 4 8.31938V27.2547C4 28.5095 4.4943 29.6122 5.3308 30.4106C6.12928 31.2091 7.26996 31.7414 8.48669 31.7414H39.5133C40.7681 31.7414 41.8707 31.2471 42.6692 30.4106C43.4677 29.6122 44 28.4715 44 27.2547V8.31938C44 7.06463 43.5057 5.96197 42.6692 5.16349ZM42.0228 27.2547H41.9848C41.9848 27.9391 41.7186 28.5475 41.2624 29.0038C40.8061 29.4601 40.1977 29.7262 39.5133 29.7262H8.48669C7.80228 29.7262 7.19392 29.4601 6.73764 29.0038C6.28137 28.5475 6.01521 27.9391 6.01521 27.2547V8.31938C6.01521 7.63497 6.28137 7.0266 6.73764 6.57033C7.19392 6.11406 7.80228 5.8479 8.48669 5.8479H15.8251C16.3954 5.8479 16.8517 5.39162 16.8517 4.82128V3.71862C16.8517 3.30037 17.0038 2.92014 17.27 2.65398C17.5361 2.38782 17.9164 2.23573 18.3346 2.23573H29.7034C30.1217 2.23573 30.5019 2.38782 30.7681 2.65398C31.0342 2.92014 31.1863 3.30037 31.1863 3.71862V4.82128C31.1863 5.39162 31.6426 5.8479 32.2129 5.8479H39.5513C40.2357 5.8479 40.8441 6.11406 41.3004 6.57033C41.7567 7.0266 42.0228 7.63497 42.0228 8.31938V27.2547Z" fill="url(#paint0_linear)"/>
<path d="M24.0001 8.43359C21.4145 8.43359 19.0571 9.49823 17.3841 11.1712C15.6731 12.8823 14.6465 15.2017 14.6465 17.7872C14.6465 20.3728 15.7111 22.7302 17.3841 24.4032C19.0952 26.1142 21.4145 27.1408 24.0001 27.1408C26.5856 27.1408 28.9431 26.0762 30.6161 24.4032C32.3271 22.6922 33.3537 20.3728 33.3537 17.7872C33.3537 15.2017 32.2891 12.8442 30.6161 11.1712C28.9431 9.49823 26.5856 8.43359 24.0001 8.43359ZM29.1712 22.9963C27.8404 24.2891 26.0153 25.1256 24.0001 25.1256C21.9849 25.1256 20.1598 24.2891 18.829 22.9963C17.4982 21.6655 16.6997 19.8404 16.6997 17.8252C16.6997 15.81 17.5362 13.9849 18.829 12.6541C20.1598 11.3233 21.9849 10.5248 24.0001 10.5248C26.0153 10.5248 27.8404 11.3614 29.1712 12.6541C30.502 13.9849 31.3005 15.81 31.3005 17.8252C31.3385 19.8404 30.502 21.6655 29.1712 22.9963Z" fill="url(#paint1_linear)"/>
<path d="M37.536 12.1217C38.5649 12.1217 39.3991 11.2876 39.3991 10.2586C39.3991 9.22965 38.5649 8.39551 37.536 8.39551C36.507 8.39551 35.6729 9.22965 35.6729 10.2586C35.6729 11.2876 36.507 12.1217 37.536 12.1217Z" fill="url(#paint2_linear)"/>
</g>
<defs>
<filter id="filter0_d" x="0" y="0.258545" width="48" height="39.4829" filterUnits="userSpaceOnUse" color-interpolation-filters="sRGB">
<feFlood flood-opacity="0" result="BackgroundImageFix"/>
<feColorMatrix in="SourceAlpha" type="matrix" values="0 0 0 0 0 0 0 0 0 0 0 0 0 0 0 0 0 0 127 0"/>
<feOffset dy="4"/>
<feGaussianBlur stdDeviation="2"/>
<feColorMatrix type="matrix" values="0 0 0 0 0 0 0 0 0 0 0 0 0 0 0 0 0 0 0.25 0"/>
<feBlend mode="normal" in2="BackgroundImageFix" result="effect1_dropShadow"/>
<feBlend mode="normal" in="SourceGraphic" in2="effect1_dropShadow" result="shape"/>
</filter>
<linearGradient id="paint0_linear" x1="37.536" y1="8.39551" x2="37.536" y2="12.1217" gradientUnits="userSpaceOnUse">
<stop stop-color="#4CC9F0"/>
<stop offset="1" stop-color="#4361EE"/>
</linearGradient>
<linearGradient id="paint1_linear" x1="37.536" y1="8.39551" x2="37.536" y2="12.1217" gradientUnits="userSpaceOnUse">
<stop stop-color="#4CC9F0"/>
<stop offset="1" stop-color="#4361EE"/>
</linearGradient>
<linearGradient id="paint2_linear" x1="37.536" y1="8.39551" x2="37.536" y2="12.1217" gradientUnits="userSpaceOnUse">
<stop stop-color="#4CC9F0"/>
<stop offset="1" stop-color="#4361EE"/>
</linearGradient>
</defs>
</svg>
