<svg width="44" height="42" viewBox="0 0 44 42" fill="none" xmlns="http://www.w3.org/2000/svg">
<g filter="url(#filter0_ddi)">
<path d="M32.4697 7.73424C31.6647 6.86742 30.7062 6.18981 29.6226 5.71677C28.5415 5.24372 27.3914 5.00336 26.208 5.00081C25.0247 5.00336 23.8771 5.24372 22.7935 5.71421C21.7354 6.17447 20.7974 6.83162 20.0026 7.66776C19.2307 6.85208 18.3208 6.20515 17.3036 5.75001C16.2941 5.29742 15.2206 5.04683 14.1114 5.00592C13.0022 4.96501 11.9134 5.13633 10.8732 5.51476C9.79724 5.90599 8.82348 6.50177 7.97751 7.28932C7.82416 7.43252 7.67592 7.58082 7.5328 7.73424C5.89964 9.49602 5 11.7897 5 14.1932C5 16.5968 5.89964 18.8905 7.5328 20.6522L7.53535 20.6548L18.7068 32.4426C19.0569 32.8133 19.5297 33 20.0026 33C20.4421 33 20.8843 32.8389 21.2293 32.5116C21.2523 32.4886 21.2753 32.4656 21.2958 32.4451L32.4621 20.6599L32.4672 20.6548C34.1003 18.893 35 16.5994 35 14.1958C35.0025 11.7897 34.1029 9.49602 32.4697 7.73424ZM29.937 18.1412L20.0026 28.6224L10.1295 18.2052C8.04651 15.9525 8.04651 12.4263 10.1346 10.1762C11.0368 9.19685 12.2661 8.62919 13.5977 8.5755C14.9293 8.5218 16.1995 8.98973 17.1784 9.89235C17.2755 9.98185 17.3726 10.079 17.4621 10.1762L18.7093 11.493L18.7247 11.5084C19.4301 12.209 20.5776 12.209 21.283 11.5084L22.5379 10.1839L22.5456 10.1762C23.4478 9.19685 24.6771 8.62919 26.0087 8.5755C27.3403 8.5218 28.6105 8.98973 29.5894 9.89235C29.6865 9.98185 29.781 10.0765 29.8731 10.1762L29.8756 10.1787C31.9688 12.4263 31.9893 15.9064 29.937 18.1412Z" fill="#4361EE"/>
</g>
<defs>
<filter id="filter0_ddi" x="0" y="0" width="44" height="42" filterUnits="userSpaceOnUse" color-interpolation-filters="sRGB">
<feFlood flood-opacity="0" result="BackgroundImageFix"/>
<feColorMatrix in="SourceAlpha" type="matrix" values="0 0 0 0 0 0 0 0 0 0 0 0 0 0 0 0 0 0 127 0"/>
<feOffset dx="-1" dy="-1"/>
<feGaussianBlur stdDeviation="2"/>
<feColorMatrix type="matrix" values="0 0 0 0 1 0 0 0 0 1 0 0 0 0 1 0 0 0 0.5 0"/>
<feBlend mode="normal" in2="BackgroundImageFix" result="effect1_dropShadow"/>
<feColorMatrix in="SourceAlpha" type="matrix" values="0 0 0 0 0 0 0 0 0 0 0 0 0 0 0 0 0 0 127 0"/>
<feOffset dx="2" dy="2"/>
<feGaussianBlur stdDeviation="3.5"/>
<feColorMatrix type="matrix" values="0 0 0 0 0 0 0 0 0 0 0 0 0 0 0 0 0 0 1 0"/>
<feBlend mode="normal" in2="effect1_dropShadow" result="effect2_dropShadow"/>
<feBlend mode="normal" in="SourceGraphic" in2="effect2_dropShadow" result="shape"/>
<feColorMatrix in="SourceAlpha" type="matrix" values="0 0 0 0 0 0 0 0 0 0 0 0 0 0 0 0 0 0 127 0" result="hardAlpha"/>
<feOffset dy="1"/>
<feGaussianBlur stdDeviation="2"/>
<feComposite in2="hardAlpha" operator="arithmetic" k2="-1" k3="1"/>
<feColorMatrix type="matrix" values="0 0 0 0 1 0 0 0 0 1 0 0 0 0 1 0 0 0 0.5 0"/>
<feBlend mode="normal" in2="shape" result="effect3_innerShadow"/>
</filter>
</defs>
</svg>
