<svg width="30" height="28" viewBox="0 0 30 28" fill="none" xmlns="http://www.w3.org/2000/svg">
<path d="M27.4698 2.73424C26.6647 1.86742 25.7062 1.18981 24.6226 0.716767C23.5415 0.243721 22.3914 0.00336258 21.208 0.000805576C20.0247 0.00336258 18.8771 0.243721 17.7935 0.71421C16.7354 1.17447 15.7974 1.83162 15.0026 2.66776C14.2307 1.85208 13.3208 1.20515 12.3036 0.750008C11.2941 0.297418 10.2206 0.0468317 9.11143 0.00591958C8.00221 -0.0349925 6.91344 0.136327 5.87323 0.514763C4.79724 0.905985 3.82348 1.50177 2.97751 2.28932C2.82416 2.43252 2.67592 2.58082 2.5328 2.73424C0.899642 4.49602 0 6.78965 0 9.19323C0 11.5968 0.899642 13.8905 2.5328 15.6522L2.53535 15.6548L13.7068 27.4426C14.0569 27.8133 14.5297 28 15.0026 28C15.4421 28 15.8843 27.8389 16.2293 27.5116C16.2523 27.4886 16.2753 27.4656 16.2958 27.4451L27.4621 15.6599L27.4672 15.6548C29.1003 13.893 30 11.5994 30 9.19579C30.0025 6.78965 29.1029 4.49602 27.4698 2.73424ZM24.937 13.1412L15.0026 23.6224L5.12949 13.2052C3.04651 10.9525 3.04651 7.42635 5.1346 5.17618C6.0368 4.19685 7.26614 3.62919 8.59771 3.5755C9.92929 3.5218 11.1995 3.98973 12.1784 4.89235C12.2755 4.98185 12.3726 5.07902 12.4621 5.17618L13.7093 6.49304L13.7247 6.50838C14.4301 7.209 15.5776 7.209 16.283 6.50838L17.5379 5.18385L17.5456 5.17618C18.4478 4.19685 19.6771 3.62919 21.0087 3.5755C22.3403 3.5218 23.6105 3.98973 24.5894 4.89235C24.6865 4.98185 24.781 5.07646 24.8731 5.17618L24.8756 5.17874C26.9688 7.42635 26.9893 10.9064 24.937 13.1412Z" fill="#4361EE"/>
</svg>
