<svg width="30" height="28" viewBox="0 0 30 28" fill="none" xmlns="http://www.w3.org/2000/svg">
<path d="M27.5467 2.62058C25.9949 0.952694 23.8206 0.00369278 21.5425 0.000174703C19.2626 0.00281326 17.086 0.951311 15.5319 2.61951L15.0022 3.17919L14.4725 2.61951C11.3888 -0.699483 6.19828 -0.890087 2.87929 2.19369C2.73222 2.3304 2.59018 2.47238 2.45348 2.61951C-0.817827 6.14801 -0.817827 11.6012 2.45348 15.1297L14.2238 27.5422C14.631 27.9721 15.3097 27.9905 15.7396 27.5833C15.7536 27.57 15.7673 27.5563 15.7806 27.5422L27.5467 15.1297C30.8178 11.6015 30.8178 6.1487 27.5467 2.62058Z" fill="#4361EE"/>
</svg>
