<svg width="45" height="43" viewBox="0 0 45 43" fill="none" xmlns="http://www.w3.org/2000/svg">
<g filter="url(#filter0_ddi)">
<path d="M36.4697 11.7342C35.6647 10.8674 34.7062 10.1898 33.6226 9.71677C32.5415 9.24372 31.3914 9.00336 30.208 9.00081C29.0247 9.00336 27.8771 9.24372 26.7935 9.71421C25.7354 10.1745 24.7974 10.8316 24.0026 11.6678C23.2307 10.8521 22.3208 10.2052 21.3036 9.75001C20.2941 9.29742 19.2206 9.04683 18.1114 9.00592C17.0022 8.96501 15.9134 9.13633 14.8732 9.51476C13.7972 9.90599 12.8235 10.5018 11.9775 11.2893C11.8242 11.4325 11.6759 11.5808 11.5328 11.7342C9.89964 13.496 9 15.7897 9 18.1932C9 20.5968 9.89964 22.8905 11.5328 24.6522L11.5354 24.6548L22.7068 36.4426C23.0569 36.8133 23.5297 37 24.0026 37C24.4421 37 24.8843 36.8389 25.2293 36.5116C25.2523 36.4886 25.2753 36.4656 25.2958 36.4451L36.4621 24.6599L36.4672 24.6548C38.1003 22.893 39 20.5994 39 18.1958C39.0025 15.7897 38.1029 13.496 36.4697 11.7342ZM33.937 22.1412L24.0026 32.6224L14.1295 22.2052C12.0465 19.9525 12.0465 16.4263 14.1346 14.1762C15.0368 13.1968 16.2661 12.6292 17.5977 12.5755C18.9293 12.5218 20.1995 12.9897 21.1784 13.8924C21.2755 13.9818 21.3726 14.079 21.4621 14.1762L22.7093 15.493L22.7247 15.5084C23.4301 16.209 24.5776 16.209 25.283 15.5084L26.5379 14.1839L26.5456 14.1762C27.4478 13.1968 28.6771 12.6292 30.0087 12.5755C31.3403 12.5218 32.6105 12.9897 33.5894 13.8924C33.6865 13.9818 33.781 14.0765 33.8731 14.1762L33.8756 14.1787C35.9688 16.4263 35.9893 19.9064 33.937 22.1412Z" fill="#4361EE"/>
</g>
<defs>
<filter id="filter0_ddi" x="0" y="0" width="45" height="43" filterUnits="userSpaceOnUse" color-interpolation-filters="sRGB">
<feFlood flood-opacity="0" result="BackgroundImageFix"/>
<feColorMatrix in="SourceAlpha" type="matrix" values="0 0 0 0 0 0 0 0 0 0 0 0 0 0 0 0 0 0 127 0"/>
<feOffset dx="-2" dy="-2"/>
<feGaussianBlur stdDeviation="3.5"/>
<feColorMatrix type="matrix" values="0 0 0 0 1 0 0 0 0 1 0 0 0 0 1 0 0 0 0.5 0"/>
<feBlend mode="normal" in2="BackgroundImageFix" result="effect1_dropShadow"/>
<feColorMatrix in="SourceAlpha" type="matrix" values="0 0 0 0 0 0 0 0 0 0 0 0 0 0 0 0 0 0 127 0"/>
<feOffset dx="2" dy="2"/>
<feGaussianBlur stdDeviation="2"/>
<feColorMatrix type="matrix" values="0 0 0 0 0 0 0 0 0 0 0 0 0 0 0 0 0 0 0.5 0"/>
<feBlend mode="normal" in2="effect1_dropShadow" result="effect2_dropShadow"/>
<feBlend mode="normal" in="SourceGraphic" in2="effect2_dropShadow" result="shape"/>
<feColorMatrix in="SourceAlpha" type="matrix" values="0 0 0 0 0 0 0 0 0 0 0 0 0 0 0 0 0 0 127 0" result="hardAlpha"/>
<feOffset dy="1"/>
<feGaussianBlur stdDeviation="2"/>
<feComposite in2="hardAlpha" operator="arithmetic" k2="-1" k3="1"/>
<feColorMatrix type="matrix" values="0 0 0 0 1 0 0 0 0 1 0 0 0 0 1 0 0 0 0.3 0"/>
<feBlend mode="normal" in2="shape" result="effect3_innerShadow"/>
</filter>
</defs>
</svg>
